<?xml version="1.0" encoding="UTF-8" standalone="no"?>
<svg
   xmlns:dc="http://purl.org/dc/elements/1.1/"
   xmlns:cc="http://creativecommons.org/ns#"
   xmlns:rdf="http://www.w3.org/1999/02/22-rdf-syntax-ns#"
   xmlns:svg="http://www.w3.org/2000/svg"
   xmlns="http://www.w3.org/2000/svg"
   xmlns:sodipodi="http://sodipodi.sourceforge.net/DTD/sodipodi-0.dtd"
   xmlns:inkscape="http://www.inkscape.org/namespaces/inkscape"
   version="1.1"
   id="Layer_1"
   x="0px"
   y="0px"
   viewBox="0 0 122.9 176.32347"
   xml:space="preserve"
   inkscape:version="0.91 r13725"
   sodipodi:docname="bus-electric.svg"
   width="122.9"
   height="176.32347"><metadata
     id="metadata13"><rdf:RDF><cc:Work
         rdf:about=""><dc:format>image/svg+xml</dc:format><dc:type
           rdf:resource="http://purl.org/dc/dcmitype/StillImage" /><dc:title></dc:title></cc:Work></rdf:RDF></metadata><defs
     id="defs11" /><sodipodi:namedview
     pagecolor="#ffffff"
     bordercolor="#666666"
     borderopacity="1"
     objecttolerance="10"
     gridtolerance="10"
     guidetolerance="10"
     inkscape:pageopacity="0"
     inkscape:pageshadow="2"
     inkscape:window-width="1395"
     inkscape:window-height="746"
     id="namedview9"
     showgrid="false"
     fit-margin-top="0"
     fit-margin-left="0"
     fit-margin-right="0"
     fit-margin-bottom="0"
     inkscape:zoom="1.9585062"
     inkscape:cx="-62.113559"
     inkscape:cy="60.25"
     inkscape:window-x="0"
     inkscape:window-y="0"
     inkscape:window-maximized="0"
     inkscape:current-layer="Layer_1" /><style
     type="text/css"
     id="style3">.st0{fill-rule:evenodd;clip-rule:evenodd;}</style><g
     id="g5"
     transform="translate(0,55.823474)"><path
       class="st0"
       d="m 110.8,103.6 -7.6,0 0,10.4 c 0,3.6 -2.9,6.5 -6.5,6.5 l -9,0 c -3.6,0 -6.5,-2.9 -6.5,-6.5 l 0,-10.3 -39.7,0 0,10.3 c 0,3.6 -2.9,6.5 -6.5,6.5 l -9,0 c -3.6,0 -6.5,-2.9 -6.5,-6.5 l 0,-10.3 -7.5,0 0,-82 c 0,-7.6 4.4,-13.1 13.3,-16.5 17.6,-6.9 54.6,-6.9 72.3,0 8.9,3.4 13.3,8.9 13.3,16.5 l 0,81.9 -0.1,0 0,0 z m 7.8,-63.2 -3.8,0 0,21.6 3.8,0 c 2.4,0 4.3,-1.9 4.3,-4.3 l 0,-13 c 0,-2.4 -1.9,-4.3 -4.3,-4.3 l 0,0 z m -114.3,0 3.8,0 0,21.6 -3.8,0 C 1.9,62 0,60.1 0,57.7 l 0,-13 c 0,-2.4 1.9,-4.3 4.3,-4.3 l 0,0 z m 42.1,-31.8 30.1,0 c 0.9,0 1.6,0.7 1.6,1.6 l 0,5.2 c 0,0.9 -0.7,1.6 -1.6,1.6 l -30.1,0 c -0.9,0 -1.6,-0.7 -1.6,-1.6 l 0,-5.2 c 0,-0.9 0.7,-1.6 1.6,-1.6 l 0,0 z m -23.5,14.6 76.7,0 c 1,0 1.9,0.9 1.9,1.9 l 0,42.8 c 0,1 -0.9,1.9 -1.9,1.9 l -76.7,0 c -1,0 -1.9,-0.9 -1.9,-1.9 l 0,-42.8 c 0,-1 0.8,-1.9 1.9,-1.9 l 0,0 0,0 0,0 z m 75.7,61.7 c 0,-1.9 -0.7,-3.6 -2,-4.9 -1.3,-1.3 -3,-2 -4.9,-2 -1.9,0 -3.5,0.7 -4.9,2 -1.4,1.3 -2,3 -2,4.9 0,1.9 0.7,3.5 2,4.8 1.4,1.3 3,2 4.9,2 1.9,0 3.6,-0.7 4.9,-2 1.4,-1.3 2,-2.9 2,-4.8 l 0,0 0,0 0,0 z m -60.5,0 c 0,-1.9 -0.7,-3.6 -2,-4.9 -1.3,-1.3 -3,-2 -4.9,-2 -1.9,0 -3.6,0.7 -4.9,2 -1.3,1.3 -2,3 -2,4.9 0,1.9 0.6,3.5 2,4.8 1.3,1.3 3,2 4.9,2 2,0 3.6,-0.7 4.9,-2 1.3,-1.3 2,-2.9 2,-4.8 l 0,0 0,0 0,0 z"
       id="path7"
       inkscape:connector-curvature="0"
       style="clip-rule:evenodd;fill-rule:evenodd" /></g><style
     id="style4193"
     type="text/css">.st0{fill-rule:evenodd;clip-rule:evenodd;}</style><g
     id="g4195"
     transform="matrix(0.3947508,0,0,0.39333813,43.843475,0)"><polygon
       id="polygon4197"
       points="33.05,63.12 33.05,63.12 0,60.01 27.4,0 64.86,0 43.62,34.43 81.83,38.66 11.69,122.88 "
       class="st0"
       style="clip-rule:evenodd;fill-rule:evenodd" /></g></svg>