<?xml version="1.0" encoding="UTF-8" standalone="no"?>
<svg
   xmlns:dc="http://purl.org/dc/elements/1.1/"
   xmlns:cc="http://creativecommons.org/ns#"
   xmlns:rdf="http://www.w3.org/1999/02/22-rdf-syntax-ns#"
   xmlns:svg="http://www.w3.org/2000/svg"
   xmlns="http://www.w3.org/2000/svg"
   xmlns:sodipodi="http://sodipodi.sourceforge.net/DTD/sodipodi-0.dtd"
   xmlns:inkscape="http://www.inkscape.org/namespaces/inkscape"
   version="1.1"
   id="Layer_1"
   x="0px"
   y="0px"
   viewBox="0 0 122.88 129.09288"
   xml:space="preserve"
   inkscape:version="0.91 r13725"
   sodipodi:docname="delivery-van-electric.svg"
   width="122.88"
   height="129.09288"
   inkscape:export-filename="/Users/Hannes/Dropbox/Cambridge postdoc/Python stuff/transport_chart/transport_energy/app/static/delivery-van-electric.png"
   inkscape:export-xdpi="90"
   inkscape:export-ydpi="90"><metadata
     id="metadata13"><rdf:RDF><cc:Work
         rdf:about=""><dc:format>image/svg+xml</dc:format><dc:type
           rdf:resource="http://purl.org/dc/dcmitype/StillImage" /><dc:title></dc:title></cc:Work></rdf:RDF></metadata><defs
     id="defs11" /><sodipodi:namedview
     pagecolor="#ffffff"
     bordercolor="#666666"
     borderopacity="1"
     objecttolerance="10"
     gridtolerance="10"
     guidetolerance="10"
     inkscape:pageopacity="0"
     inkscape:pageshadow="2"
     inkscape:window-width="1194"
     inkscape:window-height="671"
     id="namedview9"
     showgrid="false"
     fit-margin-top="0"
     fit-margin-left="0"
     fit-margin-right="0"
     fit-margin-bottom="0"
     inkscape:zoom="3.0745179"
     inkscape:cx="61.439999"
     inkscape:cy="64.400339"
     inkscape:window-x="0"
     inkscape:window-y="0"
     inkscape:window-maximized="0"
     inkscape:current-layer="Layer_1" /><style
     type="text/css"
     id="style3">.st0{fill-rule:evenodd;clip-rule:evenodd;}</style><g
     id="g5"
     transform="translate(0,52.332882)"><path
       class="st0"
       d="m 110.7,64.75 c 0,3.31 -1.1,6.15 -3.34,8.49 -2.21,2.34 -4.91,3.52 -8.06,3.52 -3.17,0 -5.86,-1.18 -8.08,-3.52 -2.21,-2.34 -3.33,-5.18 -3.33,-8.49 0,-3.32 1.12,-6.15 3.33,-8.49 2.22,-2.36 4.91,-3.52 8.08,-3.52 3.15,0 5.84,1.16 8.06,3.52 2.24,2.33 3.34,5.17 3.34,8.49 l 0,0 z m -10.58,-43.85 22.76,0 0,17.79 -22.76,0 0,-17.79 0,0 z m -4.17,0 -22.76,0 0,17.79 22.76,0 0,-17.79 0,0 z m -26.93,0 -22.76,0 0,17.79 22.76,0 0,-17.79 0,0 z m 31.1,-3.11 22.76,0 0,-17.79 -22.76,0 0,17.79 0,0 z m -4.17,0 -22.76,0 0,-17.79 22.76,0 0,17.79 0,0 z m -26.93,0 -22.76,0 0,-17.79 22.76,0 0,17.79 0,0 z m 30.74,43.13 c 2.11,0 3.83,1.71 3.83,3.83 0,2.11 -1.71,3.83 -3.83,3.83 -2.11,0 -3.83,-1.71 -3.83,-3.83 0.01,-2.12 1.72,-3.83 3.83,-3.83 l 0,0 z m -72.58,0 c 2.11,0 3.83,1.71 3.83,3.83 0,2.11 -1.71,3.83 -3.83,3.83 -2.11,0 -3.83,-1.71 -3.83,-3.83 0,-2.12 1.72,-3.83 3.83,-3.83 l 0,0 z m 11.34,3.83 c 0,3.31 -1.1,6.15 -3.33,8.49 -2.22,2.34 -4.91,3.52 -8.06,3.52 -3.17,0 -5.86,-1.18 -8.08,-3.52 -2.22,-2.34 -3.33,-5.18 -3.33,-8.49 0,-3.32 1.12,-6.15 3.33,-8.49 2.22,-2.36 4.91,-3.52 8.08,-3.52 3.15,0 5.84,1.16 8.06,3.52 2.23,2.33 3.33,5.17 3.33,8.49 l 0,0 z m 83.84,6.23 -8.47,0 c 0.74,-1.91 1.11,-3.99 1.11,-6.23 0,-4.53 -1.5,-8.4 -4.55,-11.59 -3.02,-3.22 -6.7,-4.8 -11,-4.8 -4.33,0 -8,1.58 -11.03,4.8 -3.02,3.2 -4.55,7.07 -4.55,11.59 0,2.24 0.37,4.32 1.12,6.23 l -39.37,0 0,-28.14 76.73,0 0,28.14 0.01,0 z M 42.71,53.87 39.89,55.27 C 39.38,54.53 38.8,53.82 38.15,53.13 35.12,49.9 31.44,48.31 27.14,48.31 c -4.33,0 -8.02,1.59 -11.05,4.82 -3.03,3.2 -4.56,7.08 -4.56,11.61 0,1.53 0.52,4.86 0.87,6.24 L 0,70.98 C 0,59.37 0,47.76 0,36.14 c 0,-4.53 2.89,-6.8 8.69,-6.8 l 3.26,0 8.36,-17.41 c 1.16,-2.78 3.26,-4.16 6.23,-4.16 l 16.17,0 0,46.1 0,0 z m -5.34,-16.53 0,-20.07 -14.4,0 -7.62,20.08 22.02,0 0,-0.01 0,0 z"
       id="path7"
       inkscape:connector-curvature="0"
       style="clip-rule:evenodd;fill-rule:evenodd" /></g><style
     id="style4193"
     type="text/css">.st0{fill-rule:evenodd;clip-rule:evenodd;}</style><g
     id="g4195"
     transform="matrix(0.36801387,0,0,0.40179476,48.822119,0)"><polygon
       id="polygon4197"
       points="0,60.01 27.4,0 64.86,0 43.62,34.43 81.83,38.66 11.69,122.88 33.05,63.12 33.05,63.12 "
       class="st0"
       style="clip-rule:evenodd;fill-rule:evenodd" /></g></svg>