<?xml version="1.0" encoding="UTF-8" standalone="no"?>
<svg
   xmlns:dc="http://purl.org/dc/elements/1.1/"
   xmlns:cc="http://creativecommons.org/ns#"
   xmlns:rdf="http://www.w3.org/1999/02/22-rdf-syntax-ns#"
   xmlns:svg="http://www.w3.org/2000/svg"
   xmlns="http://www.w3.org/2000/svg"
   xmlns:sodipodi="http://sodipodi.sourceforge.net/DTD/sodipodi-0.dtd"
   xmlns:inkscape="http://www.inkscape.org/namespaces/inkscape"
   version="1.1"
   id="Layer_1"
   x="0px"
   y="0px"
   viewBox="0 0 122.88581 132.06792"
   xml:space="preserve"
   inkscape:version="0.91 r13725"
   sodipodi:docname="scooter_electric.svg"
   width="122.88581"
   height="132.06792"><metadata
     id="metadata13"><rdf:RDF><cc:Work
         rdf:about=""><dc:format>image/svg+xml</dc:format><dc:type
           rdf:resource="http://purl.org/dc/dcmitype/StillImage" /><dc:title></dc:title></cc:Work></rdf:RDF></metadata><defs
     id="defs11" /><sodipodi:namedview
     pagecolor="#ffffff"
     bordercolor="#666666"
     borderopacity="1"
     objecttolerance="10"
     gridtolerance="10"
     guidetolerance="10"
     inkscape:pageopacity="0"
     inkscape:pageshadow="2"
     inkscape:window-width="1135"
     inkscape:window-height="736"
     id="namedview9"
     showgrid="false"
     fit-margin-top="0"
     fit-margin-left="0"
     fit-margin-right="0"
     fit-margin-bottom="0"
     inkscape:zoom="2.7605569"
     inkscape:cx="61.077753"
     inkscape:cy="71.714661"
     inkscape:window-x="284"
     inkscape:window-y="80"
     inkscape:window-maximized="0"
     inkscape:current-layer="Layer_1" /><style
     type="text/css"
     id="style3">.st0{fill-rule:evenodd;clip-rule:evenodd;}</style><g
     id="g5"
     transform="translate(0,46.587924)"><path
       class="st0"
       d="m 28.93,12.97 4.77,0.09 -10.55,34.76 c 1.45,0.36 2.83,0.79 4.12,1.29 C 26,48.63 24.65,48.21 23.23,47.85 13.99,45.76 6.34,48.79 0,56 l 7.9,3.72 33.54,15.82 c 0.27,-2.05 0.38,-3.99 0.34,-5.8 0.01,0.26 0.03,0.53 0.03,0.8 l 38.49,0 c 0.01,8.25 6.71,14.94 14.97,14.94 8.26,0 14.95,-6.69 14.97,-14.94 l 12.6,0 C 123.72,53.41 111.8,40.24 97.64,38.98 l 7.63,0 c 1.51,0 2.75,-1.24 2.75,-2.75 l 0,-3.02 c 0,-1.49 -1.22,-2.71 -2.71,-2.71 l -39.83,0 0,8.49 0,0 0,3.83 c 7.91,6.22 9.11,17.8 1.89,23.26 l -17.71,0 C 49.36,56.76 44.03,49.23 35.19,42.95 l 5.28,-16.26 c 2.17,-5.05 0.74,-8.88 -2.43,-11.57 0.99,-3.19 1.7,-5.92 1.49,-8.14 l 5.53,1.14 C 46.86,8.49 47.32,9.14 47.9,7.4 48,7.1 48.08,6.81 48.13,6.51 48.58,4.14 48.3,4.3 46.38,3.92 l -5.9,-1.14 -1.78,0 -2.17,-1.22 C 35.23,0.82 33.9,0.37 32.52,0.2 l -1.9,-0.12 c -1.94,0 -4.13,-0.54 -5.26,1.25 -0.02,0.03 -0.03,0.14 -0.04,0.3 -0.79,0.27 -1.47,0.86 -1.99,1.68 -0.63,0.99 -1.02,2.33 -1.02,3.8 0,1.46 0.39,2.81 1.02,3.8 0.7,1.11 1.72,1.8 2.88,1.84 0.67,0.47 1.74,0.2 2.72,0.22 l 0,0 z m -21,46.77 13.34,6.32 -4.33,-1.99 c -2.98,0.63 -5.21,3.28 -5.21,6.45 0,3.64 2.95,6.59 6.59,6.59 3.64,0 6.59,-2.95 6.59,-6.59 0,-1.12 -0.28,-2.18 -0.78,-3.11 l 9.1,4.31 c -0.61,7.7 -7.06,13.76 -14.92,13.76 -8.27,0 -14.97,-6.7 -14.97,-14.97 0.01,-4.22 1.77,-8.04 4.59,-10.77 l 0,0 z M 25.35,4.21 c 0.06,1.93 0.19,4.4 0.28,6.07 C 25.47,10.14 25.31,9.96 25.17,9.73 24.75,9.07 24.49,8.14 24.49,7.1 c 0,-1.05 0.26,-1.97 0.68,-2.63 0.06,-0.09 0.12,-0.18 0.18,-0.26 l 0,0 z m 63.33,66.34 13.18,0 c -0.01,3.63 -2.96,6.57 -6.59,6.57 -3.63,-0.01 -6.58,-2.95 -6.59,-6.57 l 0,0 z"
       id="path7"
       inkscape:connector-curvature="0"
       style="clip-rule:evenodd;fill-rule:evenodd" /></g><style
     id="style4193"
     type="text/css">.st0{fill-rule:evenodd;clip-rule:evenodd;}</style><g
     id="g4195"
     transform="matrix(0.41123445,0,0,0.42809509,58.923048,0)"><polygon
       id="polygon4197"
       points="64.86,0 43.62,34.43 81.83,38.66 11.69,122.88 33.05,63.12 33.05,63.12 0,60.01 27.4,0 "
       class="st0"
       style="clip-rule:evenodd;fill-rule:evenodd" /></g></svg>