<?xml version="1.0" encoding="UTF-8" standalone="no"?>
<!-- Created with Inkscape (http://www.inkscape.org/) -->

<svg
   xmlns:dc="http://purl.org/dc/elements/1.1/"
   xmlns:cc="http://creativecommons.org/ns#"
   xmlns:rdf="http://www.w3.org/1999/02/22-rdf-syntax-ns#"
   xmlns:svg="http://www.w3.org/2000/svg"
   xmlns="http://www.w3.org/2000/svg"
   xmlns:sodipodi="http://sodipodi.sourceforge.net/DTD/sodipodi-0.dtd"
   xmlns:inkscape="http://www.inkscape.org/namespaces/inkscape"
   id="svg2"
   version="1.1"
   inkscape:version="0.91 r13725"
   width="844.63947"
   height="567.04126"
   viewBox="0 0 844.63949 567.04126"
   sodipodi:docname="train-freight-electric.svg"
   inkscape:export-filename="/Users/Hannes/Dropbox/Cambridge postdoc/Python stuff/transport_chart/transport_energy/app/static/train-freight-electric.png"
   inkscape:export-xdpi="90"
   inkscape:export-ydpi="90">
  <metadata
     id="metadata8">
    <rdf:RDF>
      <cc:Work
         rdf:about="">
        <dc:format>image/svg+xml</dc:format>
        <dc:type
           rdf:resource="http://purl.org/dc/dcmitype/StillImage" />
        <dc:title></dc:title>
      </cc:Work>
    </rdf:RDF>
  </metadata>
  <defs
     id="defs6" />
  <sodipodi:namedview
     pagecolor="#ffffff"
     bordercolor="#666666"
     borderopacity="1"
     objecttolerance="10"
     gridtolerance="10"
     guidetolerance="10"
     inkscape:pageopacity="0"
     inkscape:pageshadow="2"
     inkscape:window-width="1241"
     inkscape:window-height="745"
     id="namedview4"
     showgrid="false"
     fit-margin-top="0"
     fit-margin-left="0"
     fit-margin-right="0"
     fit-margin-bottom="0"
     inkscape:zoom="0.18153846"
     inkscape:cx="29.067769"
     inkscape:cy="120.00801"
     inkscape:window-x="0"
     inkscape:window-y="0"
     inkscape:window-maximized="0"
     inkscape:current-layer="svg2" />
  <path
     style="fill:#000000"
     d="m 5.31401,327.03225 0,92 0,92 -5.31401,0 0,12.96875 191.16471,0 191.53731,0 2.65025,3.01562 c 2.28138,2.59654 3.25747,3.01563 7.02525,3.01563 3.86268,0 4.69764,-0.38151 7.10939,-3.25 l 2.73288,-3.25 197.49735,0.5 197.49743,0.5 10.4056,11.71094 10.4056,11.70898 13.3069,0.041 13.3068,0.0391 0,-19.9375 0,-19.9375 -5.9781,-5.32813 -5.9795,-5.32617 -0.1668,-37.70312 -0.1683,-37.70508 -1.9186,-4.90821 c -3.3651,-8.60837 -10.5212,-19.09754 -28.0785,-41.15429 -11.1119,-13.95975 -18.6419,-22.6097 -21.4709,-24.66602 -10.4585,-7.60249 -26.3368,-11.87139 -49.64095,-13.3457 -8.3749,-0.52983 -80.77004,-0.95875 -163.32212,-0.96875 -147.46073,-0.0179 -148.30419,-0.007 -152.49426,2.02539 -5.30789,2.57432 -10.04987,8.47351 -12.69985,15.80078 l -2.04477,5.6543 -0.38613,73.5 c -0.21214,40.425 -0.68663,74.30169 -1.05468,75.27929 -0.60065,1.5952 -1.74725,1.74901 -11.18542,1.5 l -10.51684,-0.27929 -0.19682,-91.75 -0.19682,-91.75 -185.9138,0 -185.9123,0 z m 460.54922,38 22.37234,0 22.37083,0 0,21 0,21 -22.37083,0 -22.37234,0 0,-21 0,-21 z m 65.57254,0 21.98622,0 21.98622,0 0,21 0,21 -21.98622,0 -21.98622,0 0,-21 0,-21 z m 67.1155,0 22.37084,0 22.37234,0 0,21 0,21 -22.37234,0 -22.37084,0 0,-21 0,-21 z m 141.17214,0 22.18606,0 22.186,0 15.6145,20.25976 c 8.588,11.14242 15.6145,20.59242 15.6145,21 0,0.40759 -17.0102,0.74024 -37.8005,0.74024 l -37.80056,0 0,-21 0,-21 z m -410.92172,160.6875 c -2.78741,0.0937 -5.60503,1.10969 -8.15958,3.15625 -2.49583,1.99955 -3.70204,2.15625 -16.58206,2.15625 -13.49979,0 -13.99127,-0.0726 -17.45496,-2.58203 -8.14832,-5.9035 -18.17517,-1.90086 -22.70737,9.0625 -1.61572,3.90844 -1.59673,14.00409 0.0346,18.01953 1.46118,3.59659 4.74467,7.67929 7.91467,9.84179 5.47768,3.73677 15.47435,0.87903 19.08808,-5.45703 l 1.64514,-2.88476 11.13133,0 11.13132,0 3.04088,3.94336 c 3.75012,4.86116 7.17958,6.40683 12.99731,5.86133 5.88377,-0.55168 10.01452,-4.171 12.68332,-11.11329 2.45882,-6.39649 2.48104,-11.68259 0.0766,-18.37695 -2.72055,-7.57437 -8.70697,-11.83298 -14.83926,-11.62695 z m -219.4926,0.0352 c -2.70529,-0.0276 -5.47752,0.83029 -8.06792,2.70704 -3.44098,2.49303 -3.96645,2.57031 -17.26565,2.57031 -13.30956,0 -13.83401,-0.0774 -17.63075,-2.63086 -9.31035,-6.26152 -19.82921,-1.01304 -23.11152,11.53125 -2.53127,9.67402 0.84055,20.53769 7.75242,24.97266 3.97923,2.55325 10.43632,2.8241 14.06854,0.58984 1.37571,-0.84624 3.66669,-3.09624 5.09015,-5 l 2.58714,-3.46289 11.27556,0 11.27557,0 1.64513,2.88476 c 2.35044,4.12105 7.57701,7.11524 12.41889,7.11524 10.55425,0 17.91535,-12.55272 15.2299,-25.97266 -1.87784,-9.38411 -8.35392,-15.23402 -15.26746,-15.30469 z m 630.30314,0.21875 c -4.51998,-0.052 -9.08414,2.12663 -11.94864,6.21289 -7.40905,10.5691 -4.77065,27.69219 5.12321,33.25391 6.03905,3.39477 14.21947,1.10218 18.84617,-5.28125 l 2.2656,-3.12695 10.897,0 10.8969,0 2.2657,3.09179 c 9.7434,13.29461 26.8046,6.30759 27.9402,-11.44335 0.603,-9.42703 -2.3978,-16.73332 -8.5396,-20.79493 -4.2493,-2.81015 -12.5147,-2.32822 -15.912,0.92774 -2.1956,2.10416 -3.058,2.21875 -16.5415,2.21875 -13.7401,0 -14.3381,-0.083 -17.5812,-2.48633 -2.30343,-1.70695 -4.99985,-2.54109 -7.71184,-2.57227 z m -238.70837,0.0722 c -3.39984,-10e-4 -6.85523,0.95456 -8.74701,2.76758 -2.19761,2.10617 -3.05219,2.21875 -16.69324,2.21875 -13.63473,0 -14.501,-0.11345 -16.7924,-2.22852 -3.48737,-3.21893 -11.50102,-3.71649 -15.63254,-0.9707 -5.69168,3.78262 -8.8041,10.21179 -8.8041,18.18359 0,8.94988 3.12642,15.68972 8.87171,19.12696 6.25282,3.74086 14.45304,1.61572 19.23681,-4.98438 l 2.26563,-3.12695 10.89696,0 10.89846,0 2.26562,3.09179 c 3.33717,4.55345 7.39386,6.90821 11.90207,6.90821 9.46572,0 16.14747,-8.36955 16.18993,-20.28125 0.0302,-8.5083 -3.02709,-15.08962 -8.78758,-18.91797 -1.81502,-1.20626 -4.426,-1.78629 -7.07032,-1.78711 z"
     id="path4162"
     inkscape:connector-curvature="0" />
  <style
     id="style4217"
     type="text/css">.st0{fill-rule:evenodd;clip-rule:evenodd;}</style>
  <g
     id="g4219"
     transform="matrix(2.1443733,0,0,2.2103582,357.22057,0)">
    <polygon
       id="polygon4221"
       points="0,60.01 27.4,0 64.86,0 43.62,34.43 81.83,38.66 11.69,122.88 33.05,63.12 33.05,63.12 "
       class="st0"
       style="clip-rule:evenodd;fill-rule:evenodd" />
  </g>
</svg>
