<?xml version="1.0" encoding="UTF-8" standalone="no"?>
<svg
   xmlns:dc="http://purl.org/dc/elements/1.1/"
   xmlns:cc="http://creativecommons.org/ns#"
   xmlns:rdf="http://www.w3.org/1999/02/22-rdf-syntax-ns#"
   xmlns:svg="http://www.w3.org/2000/svg"
   xmlns="http://www.w3.org/2000/svg"
   xmlns:sodipodi="http://sodipodi.sourceforge.net/DTD/sodipodi-0.dtd"
   xmlns:inkscape="http://www.inkscape.org/namespaces/inkscape"
   version="1.1"
   id="Layer_1"
   x="0px"
   y="0px"
   viewBox="0 0 89.52875 82.127641"
   xml:space="preserve"
   inkscape:version="0.91 r13725"
   sodipodi:docname="van_electric.svg"
   width="89.528748"
   height="82.12764"><metadata
     id="metadata13"><rdf:RDF><cc:Work
         rdf:about=""><dc:format>image/svg+xml</dc:format><dc:type
           rdf:resource="http://purl.org/dc/dcmitype/StillImage" /><dc:title></dc:title></cc:Work></rdf:RDF></metadata><defs
     id="defs11" /><sodipodi:namedview
     pagecolor="#ffffff"
     bordercolor="#666666"
     borderopacity="1"
     objecttolerance="10"
     gridtolerance="10"
     guidetolerance="10"
     inkscape:pageopacity="0"
     inkscape:pageshadow="2"
     inkscape:window-width="1393"
     inkscape:window-height="756"
     id="namedview9"
     showgrid="false"
     fit-margin-top="0"
     fit-margin-left="0"
     fit-margin-right="0"
     fit-margin-bottom="0"
     inkscape:zoom="3.2389324"
     inkscape:cx="60.508064"
     inkscape:cy="64.529244"
     inkscape:window-x="0"
     inkscape:window-y="0"
     inkscape:window-maximized="0"
     inkscape:current-layer="Layer_1" /><style
     type="text/css"
     id="style3">.st0{fill-rule:evenodd;clip-rule:evenodd;}</style><g
     id="g5"
     transform="matrix(0.72862792,0,0,0.81464341,-0.00415553,37.34669)"><path
       class="st0"
       d="m 120.11,5.33 c -0.76,-3.61 -2.9,-5.24 -6.12,-5.32 l -62.68,0 C 47,0.01 39.75,-0.27 36.28,2.65 30.38,6.86 25.79,14.32 20.81,19.18 16.76,19.7 7.39,21.09 5.23,23.01 2.74,25.23 2.77,32.38 2.8,35.41 -1.83,35.32 0.04,46.53 3.04,47.17 l 6.45,0 c -4.14,-24.65 31,-21.59 25.7,0 l 46.66,0 c -5.43,-20.67 29.19,-25.49 25.86,0.26 2.58,-0.26 3.9,-0.52 6.48,-0.78 4.95,-0.5 8.52,-0.33 8.52,-6.81 0.46,-12.84 0.1,-24.85 -2.6,-34.51 l 0,0 z m -25.1,34.04 c 2.84,0 5.14,2.3 5.14,5.14 0,2.84 -2.3,5.14 -5.14,5.14 -2.84,0 -5.14,-2.3 -5.14,-5.14 0,-2.83 2.3,-5.14 5.14,-5.14 l 0,0 z m -47.33,-34.9 -6.44,0 c -4.27,0 -9.97,6.17 -13.2,12.25 -0.33,0.62 -2.9,4.87 -1.18,4.87 l 20.81,0 0,-0.65 0,-15.82 0,-0.65 0.01,0 z m -25.56,34.9 c 2.84,0 5.14,2.3 5.14,5.14 0,2.84 -2.3,5.14 -5.14,5.14 -2.84,0 -5.14,-2.3 -5.14,-5.14 0,-2.83 2.3,-5.14 5.14,-5.14 l 0,0 z m 0,-5.32 c 5.78,0 10.46,4.68 10.46,10.46 0,5.78 -4.68,10.46 -10.46,10.46 -5.78,0 -10.46,-4.68 -10.46,-10.46 0,-5.77 4.69,-10.46 10.46,-10.46 l 0,0 z m 72.89,0 c 5.78,0 10.46,4.68 10.46,10.46 0,5.78 -4.68,10.46 -10.46,10.46 -5.78,0 -10.46,-4.68 -10.46,-10.46 0,-5.77 4.68,-10.46 10.46,-10.46 l 0,0 z"
       id="path7"
       inkscape:connector-curvature="0"
       style="clip-rule:evenodd;fill-rule:evenodd" /></g><style
     id="style4206"
     type="text/css">.st0{fill-rule:evenodd;clip-rule:evenodd;}</style><g
     id="g4208"
     transform="matrix(0.24162916,0,0,0.28643218,36.882711,0)"><polygon
       id="polygon4210"
       points="11.69,122.88 33.05,63.12 33.05,63.12 0,60.01 27.4,0 64.86,0 43.62,34.43 81.83,38.66 "
       class="st0"
       style="clip-rule:evenodd;fill-rule:evenodd" /></g></svg>